# xmcd
#
# Track frame offsets:
#	180
#	10968
#	20278
#	39816
#	55272
#	72214
#	88724
#	106354
#	121617
#	134805
#	152093
#	170659
#
# Disc length: 2446 seconds
#
# Revision: 1
# Processed by: cddbd v1.5.2PL0 Copyright (c) Steve Scherf et al.
# Submitted via: audiograbber 1.83.01
#
DISCID=96098c0c
DTITLE=Roto Noto - Heads Above The Rest
DYEAR=1996
DGENRE=Country
TTITLE0=Walking On Thin Ice -Sharon Westlake
TTITLE1=Green Light -Mark LaForme
TTITLE2=Mama´s Boy -Annette Lightheart
TTITLE3=A Crazy Infatuation -Mary Beth Sippin
TTITLE4=Stuck In The Mikddle -Lenny Paquette
TTITLE5=Piece Of My Heart -Lauren Cook
TTITLE6=Time -Michael Terry
TTITLE7=Crazy Little Fool -Lynne and The Rebels
TTITLE8=Miss Behave -Randall Cousins
TTITLE9=Thru My Door -Jett
TTITLE10=Waiting For You -Geoffery Wickham
TTITLE11=You and Me -Annie Reisler
EXTD=
EXTT0=
EXTT1=
EXTT2=
EXTT3=
EXTT4=
EXTT5=
EXTT6=
EXTT7=
EXTT8=
EXTT9=
EXTT10=
EXTT11=
PLAYORDER=
